<svg class="main-svg" xmlns="http://www.w3.org/2000/svg" xmlns:xlink="http://www.w3.org/1999/xlink" width="1000" height="700" style="" viewBox="0 0 1000 700"><rect x="0" y="0" width="1000" height="700" style="fill: rgb(255, 255, 255); fill-opacity: 1;"/><defs id="defs-cee1e1"><g class="clips"/><g class="gradients"/><g class="patterns"/></defs><g class="bglayer"/><g class="layer-below"><g class="imagelayer"/><g class="shapelayer"/></g><g class="cartesianlayer"/><g class="polarlayer"/><g class="smithlayer"/><g class="ternarylayer"/><g class="geolayer"/><g class="funnelarealayer"/><g class="pielayer"/><g class="iciclelayer"/><g class="treemaplayer"/><g class="sunburstlayer"/><g class="glimages"/><g class="sankey" style="box-sizing: content-box; position: absolute; left: 0px; shape-rendering: geometricprecision; pointer-events: none;" transform="translate(80,100)matrix(1 0 0 1 0 0)"><g class="sankey-links" style="fill: none;"><path class="sankey-link" style="stroke: rgb(68, 68, 68); stroke-opacity: 1; fill: rgb(225, 87, 89); fill-opacity: 0.6; stroke-width: 0px; opacity: 1;" d="M19.5,342.50294495016794C143.5,342.50294495016794 143.5,362.50294495016817 267.5,362.50294495016817L267.5,368.5687581012453C143.5,368.5687581012453 143.5,348.56875810124507 19.5,348.56875810124507Z"/><path class="sankey-link" style="stroke: rgb(68, 68, 68); stroke-opacity: 1; fill: rgb(242, 142, 43); fill-opacity: 0.6; stroke-width: 0px; opacity: 1;" d="M19.5,348.56875810124507C143.5,348.56875810124507 143.5,368.5687581012453 267.5,368.5687581012453L267.5,388.5364785680897C143.5,388.5364785680897 143.5,368.5364785680895 19.5,368.5364785680895Z"/><path class="sankey-link" style="stroke: rgb(237, 201, 72); stroke-opacity: 0.6; fill: rgb(237, 201, 72); fill-opacity: 0.6; stroke-width: 1px; opacity: 1;" d="M19.5,368.5364785680894C143.5,368.5364785680894 143.5,388.53647856808965 267.5,388.53647856808965L267.5,388.5542105447243C143.5,388.5542105447243 143.5,368.55421054472407 19.5,368.55421054472407Z"/><path class="sankey-link" style="stroke: rgb(204, 204, 204); stroke-opacity: 0.6; fill: rgb(204, 204, 204); fill-opacity: 0.6; stroke-width: 1px; opacity: 1;" d="M19.5,368.55421054472407C143.5,368.55421054472407 143.5,388.5542105447243 267.5,388.5542105447243L267.5,389.11932243042935C143.5,389.11932243042935 143.5,369.1193224304291 19.5,369.1193224304291Z"/><path class="sankey-link" style="stroke: rgb(170, 170, 170); stroke-opacity: 0.6; fill: rgb(170, 170, 170); fill-opacity: 0.6; stroke-width: 1px; opacity: 1;" d="M19.5,369.1193224304292C143.5,369.1193224304292 143.5,389.1193224304294 267.5,389.1193224304294L267.5,389.2815171719591C143.5,389.2815171719591 143.5,369.28151717195885 19.5,369.28151717195885Z"/><path class="sankey-link" style="stroke: rgb(68, 68, 68); stroke-opacity: 1; fill: rgb(118, 183, 178); fill-opacity: 0.6; stroke-width: 0px; opacity: 1;" d="M19.5,369.2815171719589C143.5,369.2815171719589 143.5,389.28151717195914 267.5,389.28151717195914L267.5,395.650499610322C143.5,395.650499610322 143.5,375.6504996103218 19.5,375.6504996103218Z"/><path class="sankey-link" style="stroke: rgb(68, 68, 68); stroke-opacity: 1; fill: rgb(118, 183, 178); fill-opacity: 0.6; stroke-width: 0px; opacity: 1;" d="M292.5,362.50294495016817C486.5,362.50294495016817 486.5,342.50227929540307 680.5,342.50227929540307L680.5,350.1298376998603C486.5,350.1298376998603 486.5,370.1305033546254 292.5,370.1305033546254Z"/><path class="sankey-link" style="stroke: rgb(68, 68, 68); stroke-opacity: 1; fill: rgb(242, 142, 43); fill-opacity: 0.6; stroke-width: 0px; opacity: 1;" d="M292.5,370.1305033546254C486.5,370.1305033546254 486.5,350.1298376998603 680.5,350.1298376998603L680.5,370.26705942973496C486.5,370.26705942973496 486.5,390.26772508450006 292.5,390.26772508450006Z"/><path class="sankey-link" style="stroke: rgb(68, 68, 68); stroke-opacity: 1; fill: rgb(237, 201, 72); fill-opacity: 0.6; stroke-width: 0px; opacity: 1;" d="M292.5,390.2677250845001C486.5,390.2677250845001 486.5,370.267059429735 680.5,370.267059429735L680.5,371.8469741572278C486.5,371.8469741572278 486.5,391.8476398119929 292.5,391.8476398119929Z"/><path class="sankey-link" style="stroke: rgb(68, 68, 68); stroke-opacity: 1; fill: rgb(225, 87, 89); fill-opacity: 0.6; stroke-width: 0px; opacity: 1;" d="M292.5,391.84763981199285C486.5,391.84763981199285 486.5,371.84697415722775 680.5,371.84697415722775L680.5,375.67625943046374C486.5,375.67625943046374 486.5,395.67692508522885 292.5,395.67692508522885Z"/><path class="sankey-link" style="stroke: rgb(68, 68, 68); stroke-opacity: 1; fill: rgb(89, 161, 79); fill-opacity: 0.6; stroke-width: 0px; opacity: 1;" d="M19.5,0C143.5,0 143.5,0 267.5,0L267.5,35.71814479235528C143.5,35.71814479235528 143.5,35.71814479235528 19.5,35.71814479235528Z"/><path class="sankey-link" style="stroke: rgb(68, 68, 68); stroke-opacity: 1; fill: rgb(118, 183, 178); fill-opacity: 0.6; stroke-width: 0px; opacity: 1;" d="M19.5,35.718144792355275C143.5,35.718144792355275 143.5,35.718144792355275 267.5,35.718144792355275L267.5,55.44459872886634C143.5,55.44459872886634 143.5,55.44459872886634 19.5,55.44459872886634Z"/><path class="sankey-link" style="stroke: rgb(68, 68, 68); stroke-opacity: 1; fill: rgb(225, 87, 89); fill-opacity: 0.6; stroke-width: 0px; opacity: 1;" d="M19.5,55.44459872886634C143.5,55.44459872886634 143.5,55.44459872886634 267.5,55.44459872886634L267.5,119.2795617247487C143.5,119.2795617247487 143.5,119.2795617247487 19.5,119.2795617247487Z"/><path class="sankey-link" style="stroke: rgb(68, 68, 68); stroke-opacity: 1; fill: rgb(242, 142, 43); fill-opacity: 0.6; stroke-width: 0px; opacity: 1;" d="M19.5,119.2795617247487C143.5,119.2795617247487 143.5,119.2795617247487 267.5,119.2795617247487L267.5,332.98793461256327C143.5,332.98793461256327 143.5,332.98793461256327 19.5,332.98793461256327Z"/><path class="sankey-link" style="stroke: rgb(68, 68, 68); stroke-opacity: 1; fill: rgb(204, 204, 204); fill-opacity: 0.6; stroke-width: 0px; opacity: 1;" d="M19.5,332.98793461256327C143.5,332.98793461256327 143.5,332.98793461256327 267.5,332.98793461256327L267.5,342.502944950168C143.5,342.502944950168 143.5,342.502944950168 19.5,342.502944950168Z"/><path class="sankey-link" style="stroke: rgb(68, 68, 68); stroke-opacity: 1; fill: rgb(204, 204, 204); fill-opacity: 0.6; stroke-width: 0px; opacity: 1;" d="M292.5,0C486.5,0 486.5,0 680.5,0L680.5,37.1126280171085C486.5,37.1126280171085 486.5,37.1126280171085 292.5,37.1126280171085Z"/><path class="sankey-link" style="stroke: rgb(68, 68, 68); stroke-opacity: 1; fill: rgb(118, 183, 178); fill-opacity: 0.6; stroke-width: 0px; opacity: 1;" d="M292.5,37.1126280171085C486.5,37.1126280171085 486.5,37.1126280171085 680.5,37.1126280171085L680.5,75.11105043510352C486.5,75.11105043510352 486.5,75.11105043510352 292.5,75.11105043510352Z"/><path class="sankey-link" style="stroke: rgb(68, 68, 68); stroke-opacity: 1; fill: rgb(242, 142, 43); fill-opacity: 0.6; stroke-width: 0px; opacity: 1;" d="M292.5,75.11105043510351C486.5,75.11105043510351 486.5,75.11105043510351 680.5,75.11105043510351L680.5,287.96121164833187C486.5,287.96121164833187 486.5,287.96121164833187 292.5,287.96121164833187Z"/><path class="sankey-link" style="stroke: rgb(68, 68, 68); stroke-opacity: 1; fill: rgb(225, 87, 89); fill-opacity: 0.6; stroke-width: 0px; opacity: 1;" d="M292.5,287.96121164833187C486.5,287.96121164833187 486.5,287.96121164833187 680.5,287.96121164833187L680.5,320.388719160012C486.5,320.388719160012 486.5,320.388719160012 292.5,320.388719160012Z"/><path class="sankey-link" style="stroke: rgb(68, 68, 68); stroke-opacity: 1; fill: rgb(237, 201, 72); fill-opacity: 0.6; stroke-width: 0px; opacity: 1;" d="M292.5,320.388719160012C486.5,320.388719160012 486.5,320.388719160012 680.5,320.388719160012L680.5,342.5022792954031C486.5,342.5022792954031 486.5,342.5022792954031 292.5,342.5022792954031Z"/><path class="sankey-link" style="stroke: rgb(68, 68, 68); stroke-opacity: 1; fill: rgb(204, 204, 204); fill-opacity: 0.6; stroke-width: 0px; opacity: 1;" d="M19.5,375.6504996103218C143.5,375.6504996103218 143.5,415.6769250852291 267.5,415.6769250852291L267.5,425.2098861482074C143.5,425.2098861482074 143.5,385.1834606733001 19.5,385.1834606733001Z"/><path class="sankey-link" style="stroke: rgb(118, 183, 178); stroke-opacity: 0.6; fill: rgb(118, 183, 178); fill-opacity: 0.6; stroke-width: 1px; opacity: 1;" d="M19.5,385.18346067330015C143.5,385.18346067330015 143.5,425.20988614820743 267.5,425.20988614820743L267.5,425.4969644664238C143.5,425.4969644664238 143.5,385.4705389915165 19.5,385.4705389915165Z"/><path class="sankey-link" style="stroke: rgb(89, 161, 79); stroke-opacity: 0.6; fill: rgb(89, 161, 79); fill-opacity: 0.6; stroke-width: 1px; opacity: 1;" d="M19.5,385.47053899151655C143.5,385.47053899151655 143.5,425.49696446642383 267.5,425.49696446642383L267.5,425.52304339314924C143.5,425.52304339314924 143.5,385.49661791824195 19.5,385.49661791824195Z"/><path class="sankey-link" style="stroke: rgb(242, 142, 43); stroke-opacity: 0.6; fill: rgb(242, 142, 43); fill-opacity: 0.6; stroke-width: 1px; opacity: 1;" d="M19.5,385.49661791824195C143.5,385.49661791824195 143.5,425.52304339314924 267.5,425.52304339314924L267.5,425.52312179771513C143.5,425.52312179771513 143.5,385.49669632280785 19.5,385.49669632280785Z"/><path class="sankey-link" style="stroke: rgb(68, 68, 68); stroke-opacity: 1; fill: rgb(204, 204, 204); fill-opacity: 0.6; stroke-width: 0px; opacity: 1;" d="M292.5,415.6769250852291C486.5,415.6769250852291 486.5,375.6762594304638 680.5,375.6762594304638L680.5,385.26198441418774C486.5,385.26198441418774 486.5,425.262650068953 292.5,425.262650068953Z"/><path class="sankey-link" style="stroke: rgb(242, 142, 43); stroke-opacity: 0.6; fill: rgb(242, 142, 43); fill-opacity: 0.6; stroke-width: 1px; opacity: 1;" d="M292.5,425.262650068953C486.5,425.262650068953 486.5,385.26198441418774 680.5,385.26198441418774L680.5,385.26204713784045C486.5,385.26204713784045 486.5,425.2627127926057 292.5,425.2627127926057Z"/><path class="sankey-link" style="stroke: rgb(118, 183, 178); stroke-opacity: 0.6; fill: rgb(118, 183, 178); fill-opacity: 0.6; stroke-width: 1px; opacity: 1;" d="M292.5,425.2627127926058C486.5,425.2627127926058 486.5,385.2620471378405 680.5,385.2620471378405L680.5,385.5493222515175C486.5,385.5493222515175 486.5,425.54998790628275 292.5,425.54998790628275Z"/><path class="sankey-link" style="stroke: rgb(204, 204, 204); stroke-opacity: 0.6; fill: rgb(204, 204, 204); fill-opacity: 0.6; stroke-width: 1px; opacity: 1;" d="M19.5,385.4966963228079C143.5,385.4966963228079 143.5,445.54998790628247 267.5,445.54998790628247L267.5,446.02041530196686C143.5,446.02041530196686 143.5,385.9671237184923 19.5,385.9671237184923Z"/><path class="sankey-link" style="stroke: rgb(68, 68, 68); stroke-opacity: 1; fill: rgb(118, 183, 178); fill-opacity: 0.6; stroke-width: 0px; opacity: 1;" d="M19.5,385.96712371849225C143.5,385.96712371849225 143.5,446.0204153019668 267.5,446.0204153019668L267.5,447.94774222926384C143.5,447.94774222926384 143.5,387.8944506457893 19.5,387.8944506457893Z"/><path class="sankey-link" style="stroke: rgb(237, 201, 72); stroke-opacity: 0.6; fill: rgb(237, 201, 72); fill-opacity: 0.6; stroke-width: 1px; opacity: 1;" d="M292.5,445.54998790628247C486.5,445.54998790628247 486.5,385.5493222515174 680.5,385.5493222515174L680.5,385.5938889748933C486.5,385.5938889748933 486.5,445.5945546296583 292.5,445.5945546296583Z"/><path class="sankey-link" style="stroke: rgb(204, 204, 204); stroke-opacity: 0.6; fill: rgb(204, 204, 204); fill-opacity: 0.6; stroke-width: 1px; opacity: 1;" d="M292.5,445.59455462965826C486.5,445.59455462965826 486.5,385.5938889748932 680.5,385.5938889748932L680.5,385.6686398880675C486.5,385.6686398880675 486.5,445.66930554283255 292.5,445.66930554283255Z"/><path class="sankey-link" style="stroke: rgb(170, 170, 170); stroke-opacity: 0.6; fill: rgb(170, 170, 170); fill-opacity: 0.6; stroke-width: 1px; opacity: 1;" d="M292.5,445.6693055428325C486.5,445.6693055428325 486.5,385.66863988806745 680.5,385.66863988806745L680.5,386.13906728375184C486.5,386.13906728375184 486.5,446.1397329385169 292.5,446.1397329385169Z"/><path class="sankey-link" style="stroke: rgb(68, 68, 68); stroke-opacity: 1; fill: rgb(118, 183, 178); fill-opacity: 0.6; stroke-width: 0px; opacity: 1;" d="M292.5,446.13973293851683C486.5,446.13973293851683 486.5,386.1390672837518 680.5,386.1390672837518L680.5,387.9470765744987C486.5,387.9470765744987 486.5,447.9477422292637 292.5,447.9477422292637Z"/><path class="sankey-link" style="stroke: rgb(68, 68, 68); stroke-opacity: 1; fill: rgb(225, 87, 89); fill-opacity: 0.6; stroke-width: 0px; opacity: 1;" d="M19.5,387.8944506457892C143.5,387.8944506457892 143.5,467.9477422292639 267.5,467.9477422292639L267.5,472.78633732039737C143.5,472.78633732039737 143.5,392.7330457369227 19.5,392.7330457369227Z"/><path class="sankey-link" style="stroke: rgb(68, 68, 68); stroke-opacity: 1; fill: rgb(242, 142, 43); fill-opacity: 0.6; stroke-width: 0px; opacity: 1;" d="M19.5,392.73304573692263C143.5,392.73304573692263 143.5,472.7863373203973 267.5,472.7863373203973L267.5,488.7231606609916C143.5,488.7231606609916 143.5,408.6698690775169 19.5,408.6698690775169Z"/><path class="sankey-link" style="stroke: rgb(68, 68, 68); stroke-opacity: 1; fill: rgb(118, 183, 178); fill-opacity: 0.6; stroke-width: 0px; opacity: 1;" d="M19.5,408.66986907751686C143.5,408.66986907751686 143.5,488.72316066099154 267.5,488.72316066099154L267.5,494.68196255618966C143.5,494.68196255618966 143.5,414.628670972715 19.5,414.628670972715Z"/><path class="sankey-link" style="stroke: rgb(68, 68, 68); stroke-opacity: 1; fill: rgb(204, 204, 204); fill-opacity: 0.6; stroke-width: 0px; opacity: 1;" d="M19.5,414.62867097271504C143.5,414.62867097271504 143.5,494.6819625561897 267.5,494.6819625561897L267.5,496.7455574031489C143.5,496.7455574031489 143.5,416.6922658196742 19.5,416.6922658196742Z"/><path class="sankey-link" style="stroke: rgb(237, 201, 72); stroke-opacity: 0.6; fill: rgb(237, 201, 72); fill-opacity: 0.6; stroke-width: 1px; opacity: 1;" d="M19.5,416.6922658196743C143.5,416.6922658196743 143.5,496.74555740314895 267.5,496.74555740314895L267.5,497.7198101874743C143.5,497.7198101874743 143.5,417.66651860399963 19.5,417.66651860399963Z"/><path class="sankey-link" style="stroke: rgb(68, 68, 68); stroke-opacity: 1; fill: rgb(78, 121, 167); fill-opacity: 0.6; stroke-width: 0px; opacity: 1;" d="M292.5,496.942196054545C486.5,496.942196054545 486.5,493.23573894869725 680.5,493.23573894869725L680.5,494.7636494956884C486.5,494.7636494956884 486.5,498.47010660153614 292.5,498.47010660153614Z"/><path class="sankey-link" style="stroke: rgb(118, 183, 178); stroke-opacity: 0.6; fill: rgb(118, 183, 178); fill-opacity: 0.6; stroke-width: 1px; opacity: 1;" d="M292.5,498.47010660153614C486.5,498.47010660153614 486.5,494.7636494956884 680.5,494.7636494956884L680.5,494.7639552734956C486.5,494.7639552734956 486.5,498.4704123793433 292.5,498.4704123793433Z"/><path class="sankey-link" style="stroke: rgb(204, 204, 204); stroke-opacity: 0.6; fill: rgb(204, 204, 204); fill-opacity: 0.6; stroke-width: 1px; opacity: 1;" d="M292.5,498.4704123793433C486.5,498.4704123793433 486.5,494.7639552734956 680.5,494.7639552734956L680.5,494.76426105130275C486.5,494.76426105130275 486.5,498.4707181571505 292.5,498.4707181571505Z"/><path class="sankey-link" style="stroke: rgb(78, 121, 167); stroke-opacity: 0.6; fill: rgb(78, 121, 167); fill-opacity: 0.6; stroke-width: 1px; opacity: 1;" d="M292.5,467.9477422292639C486.5,467.9477422292639 486.5,387.9470765744987 680.5,387.9470765744987L680.5,388.8174527174917C486.5,388.8174527174917 486.5,468.8181183722569 292.5,468.8181183722569Z"/><path class="sankey-link" style="stroke: rgb(68, 68, 68); stroke-opacity: 1; fill: rgb(118, 183, 178); fill-opacity: 0.6; stroke-width: 0px; opacity: 1;" d="M292.5,468.81811837225683C486.5,468.81811837225683 486.5,388.8174527174916 680.5,388.8174527174916L680.5,395.4410328145359C486.5,395.4410328145359 486.5,475.4416984693011 292.5,475.4416984693011Z"/><path class="sankey-link" style="stroke: rgb(68, 68, 68); stroke-opacity: 1; fill: rgb(204, 204, 204); fill-opacity: 0.6; stroke-width: 0px; opacity: 1;" d="M292.5,475.44169846930106C486.5,475.44169846930106 486.5,395.44103281453584 680.5,395.44103281453584L680.5,396.51193098707625C486.5,396.51193098707625 486.5,476.51259664184147 292.5,476.51259664184147Z"/><path class="sankey-link" style="stroke: rgb(68, 68, 68); stroke-opacity: 1; fill: rgb(237, 201, 72); fill-opacity: 0.6; stroke-width: 0px; opacity: 1;" d="M292.5,476.51259664184147C486.5,476.51259664184147 486.5,396.51193098707625 680.5,396.51193098707625L680.5,399.3874647018909C486.5,399.3874647018909 486.5,479.3881303566561 292.5,479.3881303566561Z"/><path class="sankey-link" style="stroke: rgb(68, 68, 68); stroke-opacity: 1; fill: rgb(225, 87, 89); fill-opacity: 0.6; stroke-width: 0px; opacity: 1;" d="M292.5,479.38813035665606C486.5,479.38813035665606 486.5,399.38746470189085 680.5,399.38746470189085L680.5,400.99979658122027C486.5,400.99979658122027 486.5,481.0004622359855 292.5,481.0004622359855Z"/><path class="sankey-link" style="stroke: rgb(68, 68, 68); stroke-opacity: 1; fill: rgb(242, 142, 43); fill-opacity: 0.6; stroke-width: 0px; opacity: 1;" d="M292.5,481.0004622359854C486.5,481.0004622359854 486.5,400.9997965812202 680.5,400.9997965812202L680.5,416.93533408693287C486.5,416.93533408693287 486.5,496.9359997416981 292.5,496.9359997416981Z"/><path class="sankey-link" style="stroke: rgb(170, 170, 170); stroke-opacity: 0.6; fill: rgb(170, 170, 170); fill-opacity: 0.6; stroke-width: 1px; opacity: 1;" d="M292.5,496.93599974169814C486.5,496.93599974169814 486.5,416.9353340869329 680.5,416.9353340869329L680.5,416.9415303997797C486.5,416.9415303997797 486.5,496.9421960545449 292.5,496.9421960545449Z"/><path class="sankey-link" style="stroke: rgb(118, 183, 178); stroke-opacity: 0.6; fill: rgb(118, 183, 178); fill-opacity: 0.6; stroke-width: 1px; opacity: 1;" d="M19.5,493.2357393407201C143.5,493.2357393407201 143.5,518.4707181571504 267.5,518.4707181571504L267.5,518.4710694096058C143.5,518.4710694096058 143.5,493.2360905931755 19.5,493.2360905931755Z"/><path class="sankey-link" style="stroke: rgb(68, 68, 68); stroke-opacity: 1; fill: rgb(78, 121, 167); fill-opacity: 0.6; stroke-width: 0px; opacity: 1;" d="M19.5,493.23609059317556C143.5,493.23609059317556 143.5,518.4710694096058 267.5,518.4710694096058L267.5,519.998979956597C143.5,519.998979956597 143.5,494.7640011401667 19.5,494.7640011401667Z"/><path class="sankey-link" style="stroke: rgb(204, 204, 204); stroke-opacity: 0.6; fill: rgb(204, 204, 204); fill-opacity: 0.6; stroke-width: 1px; opacity: 1;" d="M19.5,494.7640011401667C143.5,494.7640011401667 143.5,519.9989799565969 267.5,519.9989799565969L267.5,519.9992394757103C143.5,519.9992394757103 143.5,494.76426065928007 19.5,494.76426065928007Z"/><path class="sankey-link" style="stroke: rgb(78, 121, 167); stroke-opacity: 0.6; fill: rgb(78, 121, 167); fill-opacity: 0.6; stroke-width: 1px; opacity: 1;" d="M292.5,518.4707181571504C486.5,518.4707181571504 486.5,416.94153039977977 680.5,416.94153039977977L680.5,416.9438927293517C486.5,416.9438927293517 486.5,518.4730804867223 292.5,518.4730804867223Z"/><path class="sankey-link" style="stroke: rgb(68, 68, 68); stroke-opacity: 1; fill: rgb(204, 204, 204); fill-opacity: 0.6; stroke-width: 0px; opacity: 1;" d="M292.5,518.4730804867223C486.5,518.4730804867223 486.5,416.9438927293518 680.5,416.9438927293518L680.5,418.0415927187156C486.5,418.0415927187156 486.5,519.5707804760863 292.5,519.5707804760863Z"/><path class="sankey-link" style="stroke: rgb(118, 183, 178); stroke-opacity: 0.6; fill: rgb(118, 183, 178); fill-opacity: 0.6; stroke-width: 1px; opacity: 1;" d="M292.5,519.5707804760862C486.5,519.5707804760862 486.5,418.0415927187156 680.5,418.0415927187156L680.5,418.47081224262934C486.5,418.47081224262934 486.5,520 292.5,520Z"/></g><g class="sankey-node-set" style="cursor: move;"><g class="sankey-node" transform="translate(-5.500,0.000)" style="opacity: 1;"><rect class="node-rect" width="25" height="417.6665186039996" style="stroke-width: 0.5px; stroke: rgb(0, 0, 0); stroke-opacity: 1; fill: rgb(120, 120, 120); fill-opacity: 0.3;"/><text class="node-label" style="cursor: default; font-family: TOBESTRIPPEDOpen SansTOBESTRIPPED, verdana, arial, sans-serif; font-size: 12px; fill: rgb(42, 63, 95); fill-opacity: 1; text-shadow: rgb(255, 255, 255) 1px 1px 1px, rgb(255, 255, 255) -1px -1px 1px, rgb(255, 255, 255) 1px -1px 1px, rgb(255, 255, 255) -1px 1px 1px; white-space: pre;" data-notex="1" x="0" y="0" text-anchor="start" transform="translate(28.25,213.03325930199978)">Import</text></g><g class="sankey-node" transform="translate(680.500,0.000)" style="opacity: 1;"><rect class="node-rect" width="25" height="418.4708122426294" style="stroke-width: 0.5px; stroke: rgb(0, 0, 0); stroke-opacity: 1; fill: rgb(120, 120, 120); fill-opacity: 0.3;"/><text class="node-label" style="cursor: default; font-family: TOBESTRIPPEDOpen SansTOBESTRIPPED, verdana, arial, sans-serif; font-size: 12px; fill: rgb(42, 63, 95); fill-opacity: 1; text-shadow: rgb(255, 255, 255) 1px 1px 1px, rgb(255, 255, 255) -1px -1px 1px, rgb(255, 255, 255) 1px -1px 1px, rgb(255, 255, 255) -1px 1px 1px; white-space: pre;" data-notex="1" x="0" y="0" text-anchor="end" transform="translate(-3.25,213.43540612131468)">Export</text></g><g class="sankey-node" transform="translate(267.500,362.503)" style="opacity: 1;"><rect class="node-rect" width="25" height="33.1739801350609" style="stroke-width: 0.5px; stroke: rgb(0, 0, 0); stroke-opacity: 1; fill: rgb(173, 216, 230); fill-opacity: 0.8;"/><text class="node-label" style="cursor: default; font-family: TOBESTRIPPEDOpen SansTOBESTRIPPED, verdana, arial, sans-serif; font-size: 12px; fill: rgb(42, 63, 95); fill-opacity: 1; text-shadow: rgb(255, 255, 255) 1px 1px 1px, rgb(255, 255, 255) -1px -1px 1px, rgb(255, 255, 255) 1px -1px 1px, rgb(255, 255, 255) -1px 1px 1px; white-space: pre;" data-notex="1" x="0" y="0" text-anchor="start" transform="translate(28.25,20.78699006753045)">Natural Gas CHP</text></g><g class="sankey-node" transform="translate(267.500,0.000)" style="opacity: 1;"><rect class="node-rect" width="25" height="342.50294495016817" style="stroke-width: 0.5px; stroke: rgb(0, 0, 0); stroke-opacity: 1; fill: rgb(173, 216, 230); fill-opacity: 0.8;"/><text class="node-label" style="cursor: default; font-family: TOBESTRIPPEDOpen SansTOBESTRIPPED, verdana, arial, sans-serif; font-size: 12px; fill: rgb(42, 63, 95); fill-opacity: 1; text-shadow: rgb(255, 255, 255) 1px 1px 1px, rgb(255, 255, 255) -1px -1px 1px, rgb(255, 255, 255) 1px -1px 1px, rgb(255, 255, 255) -1px 1px 1px; white-space: pre;" data-notex="1" x="0" y="0" text-anchor="start" transform="translate(28.25,175.45147247508407)">Olefins Production Plant</text></g><g class="sankey-node" transform="translate(267.500,415.677)" style="opacity: 1;"><rect class="node-rect" width="25" height="9.873062821053395" style="stroke-width: 0.5px; stroke: rgb(0, 0, 0); stroke-opacity: 1; fill: rgb(173, 216, 230); fill-opacity: 0.8;"/><text class="node-label" style="cursor: default; font-family: TOBESTRIPPEDOpen SansTOBESTRIPPED, verdana, arial, sans-serif; font-size: 12px; fill: rgb(42, 63, 95); fill-opacity: 1; text-shadow: rgb(255, 255, 255) 1px 1px 1px, rgb(255, 255, 255) -1px -1px 1px, rgb(255, 255, 255) 1px -1px 1px, rgb(255, 255, 255) -1px 1px 1px; white-space: pre;" data-notex="1" x="0" y="0" text-anchor="start" transform="translate(28.25,9.136531410526697)">Aromatics Production Plant</text></g><g class="sankey-node" transform="translate(267.500,445.550)" style="opacity: 1;"><rect class="node-rect" width="25" height="2.3977543229814273" style="stroke-width: 0.5px; stroke: rgb(0, 0, 0); stroke-opacity: 1; fill: rgb(173, 216, 230); fill-opacity: 0.8;"/><text class="node-label" style="cursor: default; font-family: TOBESTRIPPEDOpen SansTOBESTRIPPED, verdana, arial, sans-serif; font-size: 12px; fill: rgb(42, 63, 95); fill-opacity: 1; text-shadow: rgb(255, 255, 255) 1px 1px 1px, rgb(255, 255, 255) -1px -1px 1px, rgb(255, 255, 255) 1px -1px 1px, rgb(255, 255, 255) -1px 1px 1px; white-space: pre;" data-notex="1" x="0" y="0" text-anchor="start" transform="translate(28.25,5.398877161490713)">Biogas Plant</text></g><g class="sankey-node" transform="translate(267.500,467.948)" style="opacity: 1;"><rect class="node-rect" width="25" height="30.522975927886478" style="stroke-width: 0.5px; stroke: rgb(0, 0, 0); stroke-opacity: 1; fill: rgb(173, 216, 230); fill-opacity: 0.8;"/><text class="node-label" style="cursor: default; font-family: TOBESTRIPPEDOpen SansTOBESTRIPPED, verdana, arial, sans-serif; font-size: 12px; fill: rgb(42, 63, 95); fill-opacity: 1; text-shadow: rgb(255, 255, 255) 1px 1px 1px, rgb(255, 255, 255) -1px -1px 1px, rgb(255, 255, 255) 1px -1px 1px, rgb(255, 255, 255) -1px 1px 1px; white-space: pre;" data-notex="1" x="0" y="0" text-anchor="start" transform="translate(28.25,19.461487963943238)">Methanol Production Plant</text></g><g class="sankey-node" transform="translate(680.500,493.236)" style="opacity: 1;"><rect class="node-rect" width="25" height="1.5285221026056206" style="stroke-width: 0.5px; stroke: rgb(0, 0, 0); stroke-opacity: 1; fill: rgb(173, 216, 230); fill-opacity: 0.8;"/><text class="node-label" style="cursor: default; font-family: TOBESTRIPPEDOpen SansTOBESTRIPPED, verdana, arial, sans-serif; font-size: 12px; fill: rgb(42, 63, 95); fill-opacity: 1; text-shadow: rgb(255, 255, 255) 1px 1px 1px, rgb(255, 255, 255) -1px -1px 1px, rgb(255, 255, 255) 1px -1px 1px, rgb(255, 255, 255) -1px 1px 1px; white-space: pre;" data-notex="1" x="0" y="0" text-anchor="end" transform="translate(-3.25,4.96426105130281)">DME Plant</text></g><g class="sankey-node" transform="translate(-5.500,493.236)" style="opacity: 1;"><rect class="node-rect" width="25" height="1.5285213185599105" style="stroke-width: 0.5px; stroke: rgb(0, 0, 0); stroke-opacity: 1; fill: rgb(173, 216, 230); fill-opacity: 0.8;"/><text class="node-label" style="cursor: default; font-family: TOBESTRIPPEDOpen SansTOBESTRIPPED, verdana, arial, sans-serif; font-size: 12px; fill: rgb(42, 63, 95); fill-opacity: 1; text-shadow: rgb(255, 255, 255) 1px 1px 1px, rgb(255, 255, 255) -1px -1px 1px, rgb(255, 255, 255) 1px -1px 1px, rgb(255, 255, 255) -1px 1px 1px; white-space: pre;" data-notex="1" x="0" y="0" text-anchor="start" transform="translate(28.25,4.9642606592799545)">Methanol Production Plant</text></g><g class="sankey-node" transform="translate(267.500,518.471)" style="opacity: 1;"><rect class="node-rect" width="25" height="1.5292818428496275" style="stroke-width: 0.5px; stroke: rgb(0, 0, 0); stroke-opacity: 1; fill: rgb(173, 216, 230); fill-opacity: 0.8;"/><text class="node-label" style="cursor: default; font-family: TOBESTRIPPEDOpen SansTOBESTRIPPED, verdana, arial, sans-serif; font-size: 12px; fill: rgb(42, 63, 95); fill-opacity: 1; text-shadow: rgb(255, 255, 255) 1px 1px 1px, rgb(255, 255, 255) -1px -1px 1px, rgb(255, 255, 255) 1px -1px 1px, rgb(255, 255, 255) -1px 1px 1px; white-space: pre;" data-notex="1" x="0" y="0" text-anchor="start" transform="translate(28.25,4.964640921424813)">DME Plant</text></g></g></g><defs id="topdefs-cee1e1"><g class="clips"/></defs><g class="layer-above"><g class="imagelayer"/><g class="shapelayer"/></g><g class="infolayer"><g class="g-gtitle"><text class="gtitle" style="opacity: 1; font-family: TOBESTRIPPEDOpen SansTOBESTRIPPED, verdana, arial, sans-serif; font-size: 17px; fill: rgb(42, 63, 95); fill-opacity: 1; white-space: pre;" x="50" y="50" text-anchor="start" dy="0em">Industrial Cluster — Material Flow Sankey</text></g><g class="first-render"/><g class="annotation" data-index="0" style="opacity: 1;"><g class="annotation-text-g" transform="rotate(0,815.5,109.5)"><g class="cursor-pointer" transform="translate(787,100)"><rect class="bg" style="stroke-width: 1px; stroke: rgb(0, 0, 0); stroke-opacity: 0; fill: rgb(0, 0, 0); fill-opacity: 0;" x="0.5" y="0.5" width="56" height="18"/><text class="annotation-text" style="font-family: TOBESTRIPPEDOpen SansTOBESTRIPPED, verdana, arial, sans-serif; font-size: 11px; fill: rgb(42, 63, 95); fill-opacity: 1; white-space: pre;" text-anchor="middle" x="28.4169921875" y="13.25"><tspan style=" fill:#f28e2b">■</tspan> Nitrogen</text></g></g></g><g class="annotation" data-index="1" style="opacity: 1;"><g class="annotation-text-g" transform="rotate(0,831.5,132.90000000000003)"><g class="cursor-pointer" transform="translate(787,123)"><rect class="bg" style="stroke-width: 1px; stroke: rgb(0, 0, 0); stroke-opacity: 0; fill: rgb(0, 0, 0); fill-opacity: 0;" x="0.5" y="0.5" width="88" height="18"/><text class="annotation-text" style="font-family: TOBESTRIPPEDOpen SansTOBESTRIPPED, verdana, arial, sans-serif; font-size: 11px; fill: rgb(42, 63, 95); fill-opacity: 1; white-space: pre;" text-anchor="middle" x="44.599609375" y="13.25"><tspan style=" fill:#edc948">■</tspan> Carbon dioxide</text></g></g></g><g class="annotation" data-index="2" style="opacity: 1;"><g class="annotation-text-g" transform="rotate(0,809,156.29999999999998)"><g class="cursor-pointer" transform="translate(787,147)"><rect class="bg" style="stroke-width: 1px; stroke: rgb(0, 0, 0); stroke-opacity: 0; fill: rgb(0, 0, 0); fill-opacity: 0;" x="0.5" y="0.5" width="43" height="18"/><text class="annotation-text" style="font-family: TOBESTRIPPEDOpen SansTOBESTRIPPED, verdana, arial, sans-serif; font-size: 11px; fill: rgb(42, 63, 95); fill-opacity: 1; white-space: pre;" text-anchor="middle" x="22.099609375" y="13.25"><tspan style=" fill:#76b7b2">■</tspan> Water</text></g></g></g><g class="annotation" data-index="3" style="opacity: 1;"><g class="annotation-text-g" transform="rotate(0,813.5,179.7)"><g class="cursor-pointer" transform="translate(787,170)"><rect class="bg" style="stroke-width: 1px; stroke: rgb(0, 0, 0); stroke-opacity: 0; fill: rgb(0, 0, 0); fill-opacity: 0;" x="0.5" y="0.5" width="52" height="18"/><text class="annotation-text" style="font-family: TOBESTRIPPEDOpen SansTOBESTRIPPED, verdana, arial, sans-serif; font-size: 11px; fill: rgb(42, 63, 95); fill-opacity: 1; white-space: pre;" text-anchor="middle" x="26.56640625" y="13.25"><tspan style=" fill:#e15759">■</tspan> Oxygen</text></g></g></g><g class="annotation" data-index="4" style="opacity: 1;"><g class="annotation-text-g" transform="rotate(0,815.5,203.09999999999997)"><g class="cursor-pointer" transform="translate(787,194)"><rect class="bg" style="stroke-width: 1px; stroke: rgb(0, 0, 0); stroke-opacity: 0; fill: rgb(0, 0, 0); fill-opacity: 0;" x="0.5" y="0.5" width="56" height="18"/><text class="annotation-text" style="font-family: TOBESTRIPPEDOpen SansTOBESTRIPPED, verdana, arial, sans-serif; font-size: 11px; fill: rgb(42, 63, 95); fill-opacity: 1; white-space: pre;" text-anchor="middle" x="28.4169921875" y="13.25"><tspan style=" fill:#59a14f">■</tspan> Naphtha</text></g></g></g><g class="annotation" data-index="5" style="opacity: 1;"><g class="annotation-text-g" transform="rotate(0,817,226.5)"><g class="cursor-pointer" transform="translate(787,217)"><rect class="bg" style="stroke-width: 1px; stroke: rgb(0, 0, 0); stroke-opacity: 0; fill: rgb(0, 0, 0); fill-opacity: 0;" x="0.5" y="0.5" width="59" height="18"/><text class="annotation-text" style="font-family: TOBESTRIPPEDOpen SansTOBESTRIPPED, verdana, arial, sans-serif; font-size: 11px; fill: rgb(42, 63, 95); fill-opacity: 1; white-space: pre;" text-anchor="middle" x="30.2333984375" y="13.25"><tspan style=" fill:#4e79a7">■</tspan> Methanol</text></g></g></g><g class="annotation" data-index="6" style="opacity: 1;"><g class="annotation-text-g" transform="rotate(0,808.5,249.9)"><g class="cursor-pointer" transform="translate(787,240)"><rect class="bg" style="stroke-width: 1px; stroke: rgb(0, 0, 0); stroke-opacity: 0; fill: rgb(0, 0, 0); fill-opacity: 0;" x="0.5" y="0.5" width="42" height="18"/><text class="annotation-text" style="font-family: TOBESTRIPPEDOpen SansTOBESTRIPPED, verdana, arial, sans-serif; font-size: 11px; fill: rgb(42, 63, 95); fill-opacity: 1; white-space: pre;" text-anchor="middle" x="21.3662109375" y="13.25"><tspan style=" fill:#cccccc">■</tspan> Other</text></g></g></g><g class="annotation" data-index="7" style="opacity: 1;"><g class="annotation-text-g" transform="rotate(0,817.5,273.29999999999995)"><g class="cursor-pointer" transform="translate(787,264)"><rect class="bg" style="stroke-width: 1px; stroke: rgb(0, 0, 0); stroke-opacity: 0; fill: rgb(0, 0, 0); fill-opacity: 0;" x="0.5" y="0.5" width="60" height="18"/><text class="annotation-text" style="font-family: TOBESTRIPPEDOpen SansTOBESTRIPPED, verdana, arial, sans-serif; font-size: 11px; fill: rgb(42, 63, 95); fill-opacity: 1; white-space: pre;" text-anchor="middle" x="30.5498046875" y="13.25"><tspan style=" fill:#aaaaaa">■</tspan> Unknown</text></g></g></g></g></svg>